<?xml version="1.0" encoding="utf-8"?>
<!-- Generator: Adobe Illustrator 16.2.1, SVG Export Plug-In . SVG Version: 6.00 Build 0)  -->
<!DOCTYPE svg PUBLIC "-//W3C//DTD SVG 1.1//EN" "http://www.w3.org/Graphics/SVG/1.1/DTD/svg11.dtd">
<svg version="1.1" id="All_glyphs" xmlns="http://www.w3.org/2000/svg" xmlns:xlink="http://www.w3.org/1999/xlink" x="0px" y="0px"
	 width="696px" height="588px" viewBox="0 0 696 588" enable-background="new 0 0 696 588" xml:space="preserve">
<path d="M12.773,43.514c2.254,9.642,102.82,443.064,106.439,458.672c3.068,13.232,16.901,17.985,27.53,12.263
	c12.138-6.534,182.436-98.195,182.436-98.195v-0.007l21.931-11.809l-16.58-18.432c0-0.007,0-0.015-0.015-0.021
	c0,0-284.325-307.493-288.259-311.774c-3.935-4.259,2.31-11.706,7.703-7.736c5.4,3.959,402.28,295.409,402.28,295.409l82.42-33.027
	h-0.015c0,0,124.313-49.811,139.013-55.698c12.345-4.942,10.027-13.912-0.365-17.574C665.054,251.274,43.309,32.177,30.727,27.743
	C18.146,23.308,9.87,30.954,12.773,43.514z M456.997,410.925l-116.46,60.257c0,0,95.152,85.396,104.336,93.725
	c7.046,6.398,12.124,3.888,12.124-5.157V410.925z"/>
</svg>
